<svg width="10" height="7" viewBox="0 0 10 7" fill="none" xmlns="http://www.w3.org/2000/svg">
<path d="M2.67628 0.547109H0.424031V6.17773H2.67628C4.22873 6.17773 5.41116 4.95508 5.41116 3.36242C5.41116 1.76976 4.22873 0.547109 2.67628 0.547109ZM2.67628 4.939H1.71103V1.78585H2.67628C3.56109 1.78585 4.17242 2.39717 4.17242 3.36242C4.17242 4.32767 3.56109 4.939 2.67628 4.939ZM7.90126 6.29035C9.12391 6.29035 9.99264 5.64685 9.99264 4.56094C9.99264 3.37047 9.03543 3.07285 8.18279 2.81545C7.30602 2.55 7.16928 2.37304 7.16928 2.11564C7.16928 1.89042 7.37037 1.68932 7.77256 1.68932C8.28736 1.68932 8.55281 1.93868 8.74586 2.34087L9.83176 1.70541C9.42153 0.876903 8.69759 0.434497 7.77256 0.434497C6.79927 0.434497 5.88228 1.06191 5.88228 2.14782C5.88228 3.22568 6.70274 3.62787 7.53929 3.86113C8.38389 4.0944 8.70564 4.23115 8.70564 4.57703C8.70564 4.79421 8.55281 5.03552 7.94148 5.03552C7.30602 5.03552 6.96014 4.72182 6.75905 4.25528L5.64901 4.89878C5.96272 5.72728 6.71883 6.29035 7.90126 6.29035Z" fill="#FE6470"/>
</svg>
