<svg width="86"
     height="23"
     viewBox="0 0 86 23"
     fill="none"
     xmlns="http://www.w3.org/2000/svg">
    <path d="M35.3247 15.6761C34.5603 15.6761 33.8583 15.4967 33.2187 15.1379C32.5791 14.7791 32.0721 14.2838 31.6977 13.652C31.3233 13.0124 31.1361 12.2909 31.1361 11.4875C31.1361 10.6919 31.3233 9.97824 31.6977 9.34644C32.0721 8.70684 32.5791 8.20764 33.2187 7.84884C33.8583 7.49004 34.5603 7.31064 35.3247 7.31064C36.0969 7.31064 36.7989 7.49004 37.4307 7.84884C38.0703 8.20764 38.5734 8.70684 38.94 9.34644C39.3144 9.97824 39.5016 10.6919 39.5016 11.4875C39.5016 12.2909 39.3144 13.0124 38.94 13.652C38.5734 14.2838 38.0703 14.7791 37.4307 15.1379C36.7911 15.4967 36.0891 15.6761 35.3247 15.6761ZM35.3247 14.2136C35.8161 14.2136 36.249 14.1044 36.6234 13.886C36.9978 13.6598 37.2903 13.34 37.5009 12.9266C37.7115 12.5132 37.8168 12.0335 37.8168 11.4875C37.8168 10.9415 37.7115 10.4657 37.5009 10.0601C37.2903 9.64674 36.9978 9.33084 36.6234 9.11244C36.249 8.89404 35.8161 8.78484 35.3247 8.78484C34.8333 8.78484 34.3965 8.89404 34.0143 9.11244C33.6399 9.33084 33.3474 9.64674 33.1368 10.0601C32.9262 10.4657 32.8209 10.9415 32.8209 11.4875C32.8209 12.0335 32.9262 12.5132 33.1368 12.9266C33.3474 13.34 33.6399 13.6598 34.0143 13.886C34.3965 14.1044 34.8333 14.2136 35.3247 14.2136ZM42.3582 10.0484C42.5688 9.75204 42.8574 9.50634 43.224 9.31134C43.5984 9.10854 44.0235 9.00714 44.4993 9.00714C45.0531 9.00714 45.5523 9.14364 45.9969 9.41664C46.4493 9.68964 46.8042 10.0796 47.0616 10.5866C47.3268 11.0858 47.4594 11.6669 47.4594 12.3299C47.4594 12.9929 47.3268 13.5818 47.0616 14.0966C46.8042 14.6036 46.4493 14.9975 45.9969 15.2783C45.5523 15.5591 45.0531 15.6995 44.4993 15.6995C44.0235 15.6995 43.6023 15.602 43.2357 15.407C42.8769 15.212 42.5844 14.9663 42.3582 14.6699V18.683H40.7202V9.11244H42.3582V10.0484ZM45.7863 12.3299C45.7863 11.9399 45.7044 11.6045 45.5406 11.3237C45.3846 11.0351 45.174 10.8167 44.9088 10.6685C44.6514 10.5203 44.3706 10.4462 44.0664 10.4462C43.77 10.4462 43.4892 10.5242 43.224 10.6802C42.9666 10.8284 42.756 11.0468 42.5922 11.3354C42.4362 11.624 42.3582 11.9633 42.3582 12.3533C42.3582 12.7433 42.4362 13.0826 42.5922 13.3712C42.756 13.6598 42.9666 13.8821 43.224 14.0381C43.4892 14.1863 43.77 14.2604 44.0664 14.2604C44.3706 14.2604 44.6514 14.1824 44.9088 14.0264C45.174 13.8704 45.3846 13.6481 45.5406 13.3595C45.7044 13.0709 45.7863 12.7277 45.7863 12.3299ZM54.6752 12.2129C54.6752 12.4469 54.6596 12.6575 54.6284 12.8447H49.8899C49.9289 13.3127 50.0927 13.6793 50.3813 13.9445C50.6699 14.2097 51.0248 14.3423 51.446 14.3423C52.0544 14.3423 52.4873 14.081 52.7447 13.5584H54.5114C54.3242 14.1824 53.9654 14.6972 53.435 15.1028C52.9046 15.5006 52.2533 15.6995 51.4811 15.6995C50.8571 15.6995 50.2955 15.563 49.7963 15.29C49.3049 15.0092 48.9188 14.6153 48.638 14.1083C48.365 13.6013 48.2285 13.0163 48.2285 12.3533C48.2285 11.6825 48.365 11.0936 48.638 10.5866C48.911 10.0796 49.2932 9.68964 49.7846 9.41664C50.276 9.14364 50.8415 9.00714 51.4811 9.00714C52.0973 9.00714 52.6472 9.13974 53.1308 9.40494C53.6222 9.67014 54.0005 10.0484 54.2657 10.5398C54.5387 11.0234 54.6752 11.5811 54.6752 12.2129ZM52.9787 11.7449C52.9709 11.3237 52.8188 10.9883 52.5224 10.7387C52.226 10.4813 51.8633 10.3526 51.4343 10.3526C51.0287 10.3526 50.6855 10.4774 50.4047 10.727C50.1317 10.9688 49.964 11.3081 49.9016 11.7449H52.9787ZM59.4627 9.01884C60.2349 9.01884 60.8589 9.26454 61.3347 9.75594C61.8105 10.2395 62.0484 10.9181 62.0484 11.7917V15.5942H60.4104V12.014C60.4104 11.4992 60.2817 11.1053 60.0243 10.8323C59.7669 10.5515 59.4159 10.4111 58.9713 10.4111C58.5189 10.4111 58.1601 10.5515 57.8949 10.8323C57.6375 11.1053 57.5088 11.4992 57.5088 12.014V15.5942H55.8708V9.11244H57.5088V9.91974C57.7272 9.63894 58.0041 9.42054 58.3395 9.26454C58.6827 9.10074 59.0571 9.01884 59.4627 9.01884ZM69.5613 9.95484C69.5613 10.3916 69.456 10.8011 69.2454 11.1833C69.0426 11.5655 68.7189 11.8736 68.2743 12.1076C67.8375 12.3416 67.2837 12.4586 66.6129 12.4586H65.244V15.5942H63.606V7.42764H66.6129C67.2447 7.42764 67.7829 7.53684 68.2275 7.75524C68.6721 7.97364 69.0036 8.27394 69.222 8.65614C69.4482 9.03834 69.5613 9.47124 69.5613 9.95484ZM66.5427 11.1365C66.9951 11.1365 67.3305 11.0351 67.5489 10.8323C67.7673 10.6217 67.8765 10.3292 67.8765 9.95484C67.8765 9.15924 67.4319 8.76144 66.5427 8.76144H65.244V11.1365H66.5427ZM70.3031 12.3299C70.3031 11.6747 70.4318 11.0936 70.6892 10.5866C70.9544 10.0796 71.3093 9.68964 71.7539 9.41664C72.2063 9.14364 72.7094 9.00714 73.2632 9.00714C73.7468 9.00714 74.168 9.10464 74.5268 9.29964C74.8934 9.49464 75.1859 9.74034 75.4043 10.0367V9.11244H77.054V15.5942H75.4043V14.6465C75.1937 14.9507 74.9012 15.2042 74.5268 15.407C74.1602 15.602 73.7351 15.6995 73.2515 15.6995C72.7055 15.6995 72.2063 15.5591 71.7539 15.2783C71.3093 14.9975 70.9544 14.6036 70.6892 14.0966C70.4318 13.5818 70.3031 12.9929 70.3031 12.3299ZM75.4043 12.3533C75.4043 11.9555 75.3263 11.6162 75.1703 11.3354C75.0143 11.0468 74.8037 10.8284 74.5385 10.6802C74.2733 10.5242 73.9886 10.4462 73.6844 10.4462C73.3802 10.4462 73.0994 10.5203 72.842 10.6685C72.5846 10.8167 72.374 11.0351 72.2102 11.3237C72.0542 11.6045 71.9762 11.9399 71.9762 12.3299C71.9762 12.7199 72.0542 13.0631 72.2102 13.3595C72.374 13.6481 72.5846 13.8704 72.842 14.0264C73.1072 14.1824 73.388 14.2604 73.6844 14.2604C73.9886 14.2604 74.2733 14.1863 74.5385 14.0381C74.8037 13.8821 75.0143 13.6637 75.1703 13.3829C75.3263 13.0943 75.4043 12.7511 75.4043 12.3533ZM84.8548 9.11244L80.8417 18.6596H79.0984L80.5024 15.4304L77.905 9.11244H79.7419L81.415 13.6403L83.1115 9.11244H84.8548Z"
          fill="#2F2F32" />
    <path d="M6.46484 19.1118V13.95L10.9814 16.2083L15.4979 13.95V8.14306L20.0145 5.56201V16.5309L10.9814 21.6927L6.46484 19.1118Z"
          fill="#0177FD" />
    <path d="M10.9823 5.56216L6.46576 8.14304V13.95L1.94922 16.5309V5.56216L10.9823 0.400391L15.4989 2.98127V8.14304L10.9823 5.56216Z"
          fill="#0177FD" />
</svg>